{
  "accessors": [
    {
      "bufferView": 1,
      "componentType": 5126,
      "count": 3295,
      "max": [
        1.0153299570083618,
        1.0158100128173828,
        0.9750000238418579
      ],
      "min": [
        -1.0153299570083618,
        -1.0158100128173828,
        -0.9750000238418579
      ],
      "type": "VEC3"
    },
    {
      "bufferView": 1,
      "byteOffset": 39540,
      "componentType": 5126,
      "count": 3295,
      "max": [
        0.9999541640281677,
        1.0,
        0.9998590350151062
      ],
      "min": [
        -0.9999541640281677,
        -1.0,
        -0.985996425151825
      ],
      "type": "VEC3"
    },
    {
      "bufferView": 0,
      "componentType": 5125,
      "count": 18930,
      "type": "SCALAR"
    },
    {
      "bufferView": 1,
      "byteOffset": 79080,
      "componentType": 5126,
      "count": 1487,
      "max": [
        0.9940800070762634,
        0.9774799942970276,
        1.016319990158081
      ],
      "min": [
        -0.987529993057251,
        -0.9774799942970276,
        -1.016319990158081
      ],
      "type": "VEC3"
    },
    {
      "bufferView": 1,
      "byteOffset": 96924,
      "componentType": 5126,
      "count": 1487,
      "max": [
        0.9935083985328674,
        0.991335928440094,
        1.0
      ],
      "min": [
        -0.9966400265693665,
        -0.991335928440094,
        -1.0
      ],
      "type": "VEC3"
    },
    {
      "bufferView": 0,
      "byteOffset": 75720,
      "componentType": 5125,
      "count": 7950,
      "type": "SCALAR"
    }
  ],
  "asset": {
    "extras": {
      "author": "siixarn (https://sketchfab.com/siixarn)",
      "license": "CC-BY-4.0 (http://creativecommons.org/licenses/by/4.0/)",
      "source": "https://sketchfab.com/3d-models/football-e82e717d86fb42b0bca1ff6c2ef74c28",
      "title": "Football"
    },
    "generator": "Sketchfab-12.67.0",
    "version": "2.0"
  },
  "bufferViews": [
    {
      "buffer": 0,
      "byteLength": 107520,
      "name": "floatBufferViews",
      "target": 34963
    },
    {
      "buffer": 0,
      "byteLength": 114768,
      "byteOffset": 107520,
      "byteStride": 12,
      "name": "floatBufferViews",
      "target": 34962
    }
  ],
  "buffers": [
    {
      "byteLength": 222288,
      "uri": "scene.bin"
    }
  ],
  "extensionsRequired": [
    "KHR_materials_pbrSpecularGlossiness"
  ],
  "extensionsUsed": [
    "KHR_materials_pbrSpecularGlossiness"
  ],
  "materials": [
    {
      "doubleSided": true,
      "extensions": {
        "KHR_materials_pbrSpecularGlossiness": {
          "diffuseFactor": [
            1.0,
            1.0,
            1.0,
            1.0
          ],
          "glossinessFactor": 0.49,
          "specularFactor": [
            1.0,
            1.0,
            1.0
          ]
        }
      },
      "name": "White"
    },
    {
      "doubleSided": true,
      "extensions": {
        "KHR_materials_pbrSpecularGlossiness": {
          "diffuseFactor": [
            0.06315964807290675,
            0.052529653318337755,
            0.052529653318337755,
            1.0
          ],
          "glossinessFactor": 0.72,
          "specularFactor": [
            0.0,
            0.0,
            0.0
          ]
        }
      },
      "name": "Black"
    }
  ],
  "meshes": [
    {
      "name": "Icosphere",
      "primitives": [
        {
          "attributes": {
            "NORMAL": 1,
            "POSITION": 0
          },
          "indices": 2,
          "material": 0,
          "mode": 4
        }
      ]
    },
    {
      "name": "Icosphere",
      "primitives": [
        {
          "attributes": {
            "NORMAL": 4,
            "POSITION": 3
          },
          "indices": 5,
          "material": 1,
          "mode": 4
        }
      ]
    }
  ],
  "nodes": [
    {
      "children": [
        1
      ],
      "matrix": [
        1.0,
        0.0,
        0.0,
        0.0,
        0.0,
        2.220446049250313e-16,
        -1.0,
        0.0,
        0.0,
        1.0,
        2.220446049250313e-16,
        0.0,
        0.0,
        0.0,
        0.0,
        1.0
      ],
      "name": "Sketchfab_model"
    },
    {
      "children": [
        2,
        4
      ],
      "name": "Root"
    },
    {
      "children": [
        3
      ],
      "matrix": [
        -0.29086000000000006,
        0.9551700000000001,
        -0.05519000000000001,
        0.0,
        -0.7711,
        -0.19988000000000003,
        0.6045200000000001,
        0.0,
        0.5663900000000001,
        0.21839000000000003,
        0.7946700000000001,
        0.0,
        -9.57702,
        1.00545,
        5.903860000000001,
        1.0
      ],
      "name": "Lamp"
    },
    {
      "name": "Lamp"
    },
    {
      "children": [
        5,
        6
      ],
      "name": "Icosphere"
    },
    {
      "mesh": 0,
      "name": "Icosphere"
    },
    {
      "mesh": 1,
      "name": "Icosphere"
    }
  ],
  "scene": 0,
  "scenes": [
    {
      "name": "Sketchfab_Scene",
      "nodes": [
        0
      ]
    }
  ]
}
