{
  "accessors": [
    {
      "bufferView": 2,
      "componentType": 5126,
      "count": 882,
      "max": [
        -0.4083380103111267,
        0.9208890199661255,
        2.9257919788360596
      ],
      "min": [
        -0.7050169706344604,
        0.7446889877319336,
        1.8225669860839844
      ],
      "type": "VEC3"
    },
    {
      "bufferView": 2,
      "byteOffset": 10584,
      "componentType": 5126,
      "count": 882,
      "max": [
        0.997072160243988,
        0.9998003840446472,
        1.0
      ],
      "min": [
        -0.9961903095245361,
        -0.9989151358604431,
        -1.0
      ],
      "type": "VEC3"
    },
    {
      "bufferView": 1,
      "componentType": 5126,
      "count": 882,
      "max": [
        0.0,
        0.0
      ],
      "min": [
        0.0,
        0.0
      ],
      "type": "VEC2"
    },
    {
      "bufferView": 0,
      "componentType": 5125,
      "count": 4950,
      "type": "SCALAR"
    },
    {
      "bufferView": 2,
      "byteOffset": 21168,
      "componentType": 5126,
      "count": 65533,
      "max": [
        -0.34258899092674255,
        0.7834010124206543,
        4.020431041717529
      ],
      "min": [
        -0.8531399965286255,
        -0.006976999808102846,
        3.023061990737915
      ],
      "type": "VEC3"
    },
    {
      "bufferView": 2,
      "byteOffset": 807564,
      "componentType": 5126,
      "count": 65533,
      "max": [
        0.8759259581565857,
        0.5862912535667419,
        0.9365041255950928
      ],
      "min": [
        -0.8758896589279175,
        -0.9963573813438416,
        -1.0
      ],
      "type": "VEC3"
    },
    {
      "bufferView": 1,
      "byteOffset": 7056,
      "componentType": 5126,
      "count": 65533,
      "max": [
        0.0,
        0.0
      ],
      "min": [
        0.0,
        0.0
      ],
      "type": "VEC2"
    },
    {
      "bufferView": 0,
      "byteOffset": 19800,
      "componentType": 5125,
      "count": 116631,
      "type": "SCALAR"
    },
    {
      "bufferView": 2,
      "byteOffset": 1593960,
      "componentType": 5126,
      "count": 65532,
      "max": [
        -0.39081400632858276,
        0.7816129922866821,
        4.02501916885376
      ],
      "min": [
        -0.8543230295181274,
        0.09852900356054306,
        3.0217440128326416
      ],
      "type": "VEC3"
    },
    {
      "bufferView": 2,
      "byteOffset": 2380344,
      "componentType": 5126,
      "count": 65532,
      "max": [
        0.9960136413574219,
        0.9960047602653503,
        0.9362807869911194
      ],
      "min": [
        -0.9960047602653503,
        -0.9963447451591492,
        -1.0
      ],
      "type": "VEC3"
    },
    {
      "bufferView": 1,
      "byteOffset": 531320,
      "componentType": 5126,
      "count": 65532,
      "max": [
        0.0,
        0.0
      ],
      "min": [
        0.0,
        0.0
      ],
      "type": "VEC2"
    },
    {
      "bufferView": 0,
      "byteOffset": 486324,
      "componentType": 5125,
      "count": 98442,
      "type": "SCALAR"
    },
    {
      "bufferView": 2,
      "byteOffset": 3166728,
      "componentType": 5126,
      "count": 65534,
      "max": [
        -0.34036099910736084,
        0.3416120111942291,
        4.02501916885376
      ],
      "min": [
        -0.6911789774894714,
        -0.009204999543726444,
        4.020431041717529
      ],
      "type": "VEC3"
    },
    {
      "bufferView": 2,
      "byteOffset": 3953136,
      "componentType": 5126,
      "count": 65534,
      "max": [
        0.9960225224494934,
        0.9960225224494934,
        0.0
      ],
      "min": [
        -0.9960136413574219,
        -0.9960225224494934,
        -1.0
      ],
      "type": "VEC3"
    },
    {
      "bufferView": 1,
      "byteOffset": 1055576,
      "componentType": 5126,
      "count": 65534,
      "max": [
        0.0,
        0.0
      ],
      "min": [
        0.0,
        0.0
      ],
      "type": "VEC2"
    },
    {
      "bufferView": 0,
      "byteOffset": 880092,
      "componentType": 5125,
      "count": 98598,
      "type": "SCALAR"
    },
    {
      "bufferView": 2,
      "byteOffset": 4739544,
      "componentType": 5126,
      "count": 37937,
      "max": [
        -0.3540560007095337,
        0.7746530175209045,
        4.02501916885376
      ],
      "min": [
        -0.8540840148925781,
        0.05269100144505501,
        3.1320838928222656
      ],
      "type": "VEC3"
    },
    {
      "bufferView": 2,
      "byteOffset": 5194788,
      "componentType": 5126,
      "count": 37937,
      "max": [
        0.9960136413574219,
        0.9960225224494934,
        0.935667872428894
      ],
      "min": [
        -0.9960136413574219,
        -0.9962592720985413,
        -1.0
      ],
      "type": "VEC3"
    },
    {
      "bufferView": 1,
      "byteOffset": 1579848,
      "componentType": 5126,
      "count": 37937,
      "max": [
        0.0,
        0.0
      ],
      "min": [
        0.0,
        0.0
      ],
      "type": "VEC2"
    },
    {
      "bufferView": 0,
      "byteOffset": 1274484,
      "componentType": 5125,
      "count": 56985,
      "type": "SCALAR"
    },
    {
      "bufferView": 2,
      "byteOffset": 5650032,
      "componentType": 5126,
      "count": 65532,
      "max": [
        -0.3216789960861206,
        1.0114870071411133,
        4.438526153564453
      ],
      "min": [
        -0.8673880100250244,
        -0.022801000624895096,
        0.0
      ],
      "type": "VEC3"
    },
    {
      "bufferView": 2,
      "byteOffset": 6436416,
      "componentType": 5126,
      "count": 65532,
      "max": [
        1.0,
        1.0,
        1.0
      ],
      "min": [
        -1.0,
        -1.0,
        -1.0
      ],
      "type": "VEC3"
    },
    {
      "bufferView": 1,
      "byteOffset": 1883344,
      "componentType": 5126,
      "count": 65532,
      "max": [
        0.0,
        0.0
      ],
      "min": [
        0.0,
        0.0
      ],
      "type": "VEC2"
    },
    {
      "bufferView": 0,
      "byteOffset": 1502424,
      "componentType": 5125,
      "count": 368226,
      "type": "SCALAR"
    },
    {
      "bufferView": 2,
      "byteOffset": 7222800,
      "componentType": 5126,
      "count": 8009,
      "max": [
        -0.38653498888015747,
        0.9227070212364197,
        3.2491819858551025
      ],
      "min": [
        -0.8626930117607117,
        0.6367819905281067,
        1.8631919622421265
      ],
      "type": "VEC3"
    },
    {
      "bufferView": 2,
      "byteOffset": 7318908,
      "componentType": 5126,
      "count": 8009,
      "max": [
        1.0,
        1.0,
        1.0
      ],
      "min": [
        -1.0,
        -1.0,
        -1.0
      ],
      "type": "VEC3"
    },
    {
      "bufferView": 1,
      "byteOffset": 2407600,
      "componentType": 5126,
      "count": 8009,
      "max": [
        0.0,
        0.0
      ],
      "min": [
        0.0,
        0.0
      ],
      "type": "VEC2"
    },
    {
      "bufferView": 0,
      "byteOffset": 2975328,
      "componentType": 5125,
      "count": 44298,
      "type": "SCALAR"
    }
  ],
  "asset": {
    "extras": {
      "author": "Alexandr (https://sketchfab.com/aka0xnull)",
      "license": "CC-BY-4.0 (http://creativecommons.org/licenses/by/4.0/)",
      "source": "https://sketchfab.com/3d-models/shower-stand-01a013a027ee4e6aa324b648ab046ce6",
      "title": "Shower Stand"
    },
    "generator": "Sketchfab-12.68.0",
    "version": "2.0"
  },
  "bufferViews": [
    {
      "buffer": 0,
      "byteLength": 3152520,
      "name": "floatBufferViews",
      "target": 34963
    },
    {
      "buffer": 0,
      "byteLength": 2471672,
      "byteOffset": 3152520,
      "byteStride": 8,
      "name": "floatBufferViews",
      "target": 34962
    },
    {
      "buffer": 0,
      "byteLength": 7415016,
      "byteOffset": 5624192,
      "byteStride": 12,
      "name": "floatBufferViews",
      "target": 34962
    }
  ],
  "buffers": [
    {
      "byteLength": 13039208,
      "uri": "scene.bin"
    }
  ],
  "extensionsUsed": [
    "KHR_materials_clearcoat"
  ],
  "materials": [
    {
      "doubleSided": true,
      "name": "bath_color_ruchka.002",
      "pbrMetallicRoughness": {
        "baseColorFactor": [
          0.930353,
          0.930353,
          0.930353,
          1.0
        ],
        "metallicFactor": 0.40672860428247165,
        "roughnessFactor": 0.20423362063547565
      }
    },
    {
      "doubleSided": true,
      "extensions": {
        "KHR_materials_clearcoat": {
          "clearcoatFactor": 1.0,
          "clearcoatRoughnessFactor": 0.04
        }
      },
      "name": "smesitel.002",
      "pbrMetallicRoughness": {
        "baseColorFactor": [
          0.8,
          0.8,
          0.8,
          1.0
        ],
        "roughnessFactor": 0.16373658192087015
      }
    }
  ],
  "meshes": [
    {
      "name": "Object_0",
      "primitives": [
        {
          "attributes": {
            "NORMAL": 1,
            "POSITION": 0,
            "TEXCOORD_0": 2
          },
          "indices": 3,
          "material": 0,
          "mode": 4
        }
      ]
    },
    {
      "name": "Object_1",
      "primitives": [
        {
          "attributes": {
            "NORMAL": 5,
            "POSITION": 4,
            "TEXCOORD_0": 6
          },
          "indices": 7,
          "material": 1,
          "mode": 4
        }
      ]
    },
    {
      "name": "Object_2",
      "primitives": [
        {
          "attributes": {
            "NORMAL": 9,
            "POSITION": 8,
            "TEXCOORD_0": 10
          },
          "indices": 11,
          "material": 1,
          "mode": 4
        }
      ]
    },
    {
      "name": "Object_3",
      "primitives": [
        {
          "attributes": {
            "NORMAL": 13,
            "POSITION": 12,
            "TEXCOORD_0": 14
          },
          "indices": 15,
          "material": 1,
          "mode": 4
        }
      ]
    },
    {
      "name": "Object_4",
      "primitives": [
        {
          "attributes": {
            "NORMAL": 17,
            "POSITION": 16,
            "TEXCOORD_0": 18
          },
          "indices": 19,
          "material": 1,
          "mode": 4
        }
      ]
    },
    {
      "name": "Object_5",
      "primitives": [
        {
          "attributes": {
            "NORMAL": 21,
            "POSITION": 20,
            "TEXCOORD_0": 22
          },
          "indices": 23,
          "material": 1,
          "mode": 4
        }
      ]
    },
    {
      "name": "Object_6",
      "primitives": [
        {
          "attributes": {
            "NORMAL": 25,
            "POSITION": 24,
            "TEXCOORD_0": 26
          },
          "indices": 27,
          "material": 1,
          "mode": 4
        }
      ]
    }
  ],
  "nodes": [
    {
      "children": [
        1
      ],
      "matrix": [
        1.0,
        0.0,
        0.0,
        0.0,
        0.0,
        2.220446049250313e-16,
        -1.0,
        0.0,
        0.0,
        1.0,
        2.220446049250313e-16,
        0.0,
        0.0,
        0.0,
        0.0,
        1.0
      ],
      "name": "Sketchfab_model"
    },
    {
      "children": [
        2,
        3,
        4,
        5,
        6,
        7,
        8
      ],
      "name": "Shower stand.obj.cleaner.materialmerger.gles"
    },
    {
      "mesh": 0,
      "name": "Object_2"
    },
    {
      "mesh": 1,
      "name": "Object_3"
    },
    {
      "mesh": 2,
      "name": "Object_4"
    },
    {
      "mesh": 3,
      "name": "Object_5"
    },
    {
      "mesh": 4,
      "name": "Object_6"
    },
    {
      "mesh": 5,
      "name": "Object_7"
    },
    {
      "mesh": 6,
      "name": "Object_8"
    }
  ],
  "scene": 0,
  "scenes": [
    {
      "name": "Sketchfab_Scene",
      "nodes": [
        0
      ]
    }
  ]
}
